<svg 
    id="Layer_1" 
    data-name="Layer 1" 
    xmlns="http://www.w3.org/2000/svg" 
    viewBox="0 0 1581.95 670.85">
    <defs>
        <style>.cls-1{fill:#235ba8;}</style>
    </defs>
    <path class="cls-1" d="M969.8,296.46c-.17-3.73-.3-7.42-.41-11.06C969.49,288.4,969.8,292.2,969.8,296.46Z" transform="translate(-95.09 -20.41)"/>
    <path class="cls-1" d="M500.46,221" transform="translate(-95.09 -20.41)"/>
    <path class="cls-1" d="M993,502.54c6.42,40.37-7.55,81.18,13.6,131.21s58.81,64.1,87.89,54.85,47.07-28.41,43-89.87-38.9-89.24-54.31-125.17h0c-13.65-33.77-29.26-51.05,16.07-85.83l1.14-.86c2.14-1.65,4.22-3.29,6.19-4.92l.14-.12c23.25-19.24,35.3-29.93,29.49-51.82s-23.71-19.38-50.63-17.53l-.59,0c-22.17-.29-38.31-11.72-40-33.12s30.13-108.24,27.22-138.88S1062,87.25,1035,80s-53.95,7.29-65.63,36.46-1.87,104.59,0,168.32v.08c0,.19,0,.39,0,.58.1,3,.41,6.8.41,11.06,0,16.52-4.95,40-47.16,51.17l-.66.17q-13.68,3.46-27.7,6.89l-.85.2c-10.24,2.25-17.86-.71-18.08-15.23a.17.17,0,0,0,0-.07c-1.17-88.83-8.57-219.78-88.33-202.3-81.26,17.8-28,134.16,1.73,214.18l.56,1.51.25.69c3.16,8.9,6.15,21.89-10.71,24.59q-14.87,2.22-29.54,3.82h-.17c-11.29,1.1-19-4-34.4-30.62l-.06-.1C649.25,230.85,541.42,144.84,500.54,220.88a1.35,1.35,0,0,1-.15.26c-1,1.6-12.71,21.29-12,50.23,0,.2,0,.4,0,.6-1,15.19-6.68,12.1-8.46,10.73l-.13-.11-.06,0s0,0-.05-.05c-.19-.16-.29-.26-.29-.26h0c-45.57-40.73-93.27-86.66-138.79-127.58-56.42-50.72-91.31-90-138-121.8s-125.39.6-103.81,59.93,155.86,32.06,169,121.51S99.85,362.69,210.55,523.24s239.52,99.94,215.32,22.08S294.57,509.18,269.5,422.71C241.57,326.37,329,254.61,435.41,309.09l0,0c24.28,14,60.47,47.9,61.71,88.6,0,3.58,0,7-.19,10.08-3.4,59.94-70.64,112.44-28.83,178.75S579.2,645,584.91,592.31c5.55-51.15-76.14-78.45-42.4-142.52a19.17,19.17,0,0,1,14.73-10.36,16.74,16.74,0,0,1,12.8,3.95c10.2,8.4,27.46,24.12,50.08,35.12a22,22,0,0,1,11.65,25.88c0,.08,0,.16-.07.24a.09.09,0,0,1,0,.05C562,720.8,771.52,674.43,767.08,521.4a.58.58,0,0,0,.07-.34c-.34-5.25-2.16-16.34,1.75-21.22s13.9-7,23.79-2,9.4,11.42,9.85,26.06a132.5,132.5,0,0,1-1.93,24.53,5,5,0,0,0-.07.56c-.12,1.82-.24,3.63-.34,5.45-4.41,73.51,3.07,140.08,80.31,127.93,83.4-13.12,64.64-86,37.13-158.07,0,0,19.32,56.15,0-.1s23.45-63.37,37.81-64.32,30.74,1.23,35.78,31M644.46,381.78c-.58-.06-1.19-.16-1.82-.28l-1-.16h0c-26.33-4.25-50.45-12.23-71.23-25.14l-.71-.44c-8.68-5.76-7.54-20.48-4.55-29.45v0c2.51-5.17,6.46-10.28,12.47-15.48,24.35-21.08,63.8-6.3,77.86,40.45,0,.14.08.28.11.42C658.44,363.68,662,383.87,644.46,381.78Z" transform="translate(-95.09 -20.41)"/>
    <path class="cls-1" d="M644.46,381.78c-.58-.06-1.19-.16-1.82-.28Z" transform="translate(-95.09 -20.41)"/>
    <path class="cls-1" d="M488.43,271.67" transform="translate(-95.09 -20.41)"/>
    <path class="cls-1" d="M1180.88,571.72c21.13,110.51,156,103.47,186.76-2.48S1239.8,289,1289.89,280.12s34.38,160.64,138.48,144.36,29.55-168.45,97.92-159.63-158.79,294.48-2.2,359.06,176.79-104.09,132.32-363.47c-13.69-75.57,16.2-184.41-90-207.53S1444,255,1413.81,256,1334.66,88.55,1254,87.38,1097,133.06,1180.88,571.72Z" transform="translate(-95.09 -20.41)"/>
    <path class="cls-1" d="M800.56,548.68c.55-8.24,1.24-16.54,2-24.81A132.85,132.85,0,0,1,800.56,548.68Z" transform="translate(-95.09 -20.41)"/>
    <path class="cls-1" d="M642.64,381.5l-1-.16c.22,0,.44.06.66.1Z" transform="translate(-95.09 -20.41)"/>
    <path class="cls-1" d="M800.56,548.68c-.13,1.92-.25,3.82-.36,5.73A27.23,27.23,0,0,1,800.56,548.68Z" transform="translate(-95.09 -20.41)"/>
    <path class="cls-1" d="M1106.6,381.94q-2.34,2-5,4.06l-1.14.86C1102.55,385.21,1104.63,383.57,1106.6,381.94Z" transform="translate(-95.09 -20.41)"/>
</svg>